<?xml version="1.0" encoding="utf-8"?>
<svg x="0pt" y="0pt" width="1024pt" height="1024pt" viewBox="0 0 1024 1024" xmlns="http://www.w3.org/2000/svg" xmlns:xlink="http://www.w3.org/1999/xlink">
  <!--Generated by AMDN-->
  <g id="Layer_1">
    <g id="Layer_1-1">
      <g id="am1">
        <path style="fill:#a9a9a9;fill-opacity:1;fill-rule:evenodd;opacity:1;stroke:none;" d="M512,0 C794.77,0,1024,229.23,1024,512 C1024,794.77,794.77,1024,512,1024 C229.23,1024,0,794.77,0,512 C0,229.23,229.23,0,512,0 z"/>
      </g>
      <clipPath id="am2">
        <path id="am3" d="M512,0 C794.77,0,1024,229.23,1024,512 C1024,794.77,794.77,1024,512,1024 C229.23,1024,0,794.77,0,512 C0,229.23,229.23,0,512,0 z"/>
        <path d="M512,0 C794.77,0,1024,229.23,1024,512 C1024,794.77,794.77,1024,512,1024 C229.23,1024,0,794.77,0,512 C0,229.23,229.23,0,512,0 z"/>
      </clipPath>
      <g id="Clipping_Group" style="clip-path:url(#am2);">
        <g id="Path">
          <radialGradient cx="512" cy="512" r="512" fx="512" fy="512" gradientUnits="userSpaceOnUse" gradientTransform="matrix(-4.37114e-08,1,-1,-4.37114e-08,1024,2.23802e-05)" id="am6">
            <stop style="stop-color:#3da8f4;stop-opacity:1;"/>
            <stop offset="1" style="stop-color:#382f93;stop-opacity:1;"/>
          </radialGradient>
          <g id="Path_47">
            <path style="fill:url(#am6);fill-opacity:1;fill-rule:evenodd;opacity:1;stroke:none;" d="M0,128 C0,57.3076,57.3076,1.33227e-15,128,1.33227e-15 C128,1.33227e-15,896,1.33227e-15,896,1.33227e-15 C966.692,1.33227e-15,1024,57.3075,1024,128 C1024,128,1024,896,1024,896 C1024,966.692,966.692,1024,896,1024 C896,1024,128,1024,128,1024 C57.3076,1024,0,966.692,0,896 C0,896,0,128,0,128 z"/>
          </g>
        </g>
        <g id="Halitja">
          <g id="Fills">
            <path id="Fills_1" style="fill:#bcffab;fill-opacity:0.2;fill-rule:evenodd;opacity:1;stroke:none;" d="M611.087,415.319 C647.897,415.319,677.737,445.159,677.737,481.968 C677.737,518.777,647.897,548.617,611.087,548.617 C574.278,548.617,544.439,518.777,544.439,481.968 C544.439,445.159,574.278,415.319,611.087,415.319 z"/>
            <path id="Path_1" style="fill:#f4d0ff;fill-opacity:0.4;fill-rule:nonzero;opacity:1;stroke:none;" d="M224.285,606.935 C224.285,606.935,236.187,635.499,236.187,635.499 C236.187,635.499,230.236,643.83,230.236,643.83 C230.236,643.83,240.308,667.901,240.308,667.901 C240.308,667.901,272.821,674.552,277.843,692.627 C283.793,714.05,265.195,727.376,268.12,734.366 C276.203,753.686,300.455,811.643,300.455,811.643 C300.455,811.643,338.541,798.551,338.541,798.551 C338.541,798.551,268.321,625.977,268.321,625.977 C268.321,625.977,254.039,625.977,254.039,625.977 C254.039,625.977,242.137,596.224,242.137,596.224 C242.137,596.224,224.285,606.935,224.285,606.935 z"/>
            <path id="Path_2" style="fill:#f4d0ff;fill-opacity:0.4;fill-rule:nonzero;opacity:1;stroke:none;" d="M428.993,922.328 C465.887,929.469,494.452,923.519,495.642,909.236 C496.832,894.954,515.875,859.25,515.875,859.25 C515.875,859.25,511.114,840.207,511.114,840.207 C511.114,840.207,540.868,842.588,540.868,842.588 C540.868,842.588,539.678,898.525,539.678,898.525 C539.678,898.525,558.721,938.99,597.996,934.229 C637.271,929.469,656.314,916.377,657.504,904.476 C658.694,892.574,659.884,846.157,659.884,846.157 C659.884,846.157,647.983,758.086,647.983,758.086 C647.983,758.086,638.461,753.325,638.461,753.325 C638.461,753.325,644.413,710.479,644.413,710.479 C644.413,710.479,632.51,693.817,613.468,695.007 C594.425,696.198,580.144,710.479,580.144,710.479 C580.144,710.479,581.334,749.754,581.334,749.754 C581.334,749.754,564.672,760.466,564.672,760.466 C564.672,760.466,563.482,774.748,563.482,774.748 C563.482,774.748,552.77,762.846,538.488,760.466 C524.206,758.086,515.875,761.657,515.875,761.657 C515.875,761.657,532.537,718.811,532.537,718.811 C532.537,718.811,524.206,699.768,509.924,696.198 C495.642,692.627,470.648,699.768,470.648,699.768 C470.648,699.768,461.128,727.141,461.128,727.141 C461.128,727.141,465.887,737.853,465.887,737.853 C465.887,737.853,446.845,743.803,446.845,743.803 C446.845,743.803,402.809,817.594,402.809,817.594 C402.809,817.594,381.386,869.961,381.386,869.961 C381.386,869.961,392.098,915.187,428.993,922.328 z"/>
            <path id="Path_3" style="fill:#bcffab;fill-opacity:0.2;fill-rule:nonzero;opacity:1;stroke:none;" d="M403.999,853.299 C403.999,853.299,408.76,883.053,436.134,891.384 C463.508,899.715,493.262,883.053,493.262,883.053 C493.262,883.053,483.741,864.011,457.557,856.869 C431.373,849.728,403.999,853.299,403.999,853.299 z"/>
            <path id="Path_Copy" style="fill:#bcffab;fill-opacity:0.2;fill-rule:nonzero;opacity:1;stroke:none;" d="M554.464,874.304 C554.464,874.304,565.123,902.488,593.614,905.13 C622.106,907.774,647.891,885.456,647.891,885.456 C647.891,885.456,634.727,868.724,607.64,867.006 C580.555,865.29,554.464,874.304,554.464,874.304 z"/>
            <path id="Fills_Copy" style="fill:#bcffab;fill-opacity:0.2;fill-rule:evenodd;opacity:1;stroke:none;" d="M415.901,416.509 C452.71,416.509,482.551,446.349,482.551,483.158 C482.551,519.967,452.71,549.807,415.901,549.807 C379.092,549.807,349.252,519.967,349.252,483.158 C349.252,446.349,379.092,416.509,415.901,416.509 z"/>
            <g id="Group">
              <path id="Path_579" style="fill:#bcffab;fill-opacity:0.2;fill-rule:evenodd;opacity:1;stroke:none;" d="M174.299,381.994 C228.198,381.994,271.892,425.688,271.892,479.587 C271.892,533.487,228.198,577.18,174.299,577.18 C120.399,577.18,76.7048,533.487,76.7048,479.587 C76.7048,425.688,120.399,381.994,174.299,381.994 z"/>
              <path id="Path_578" style="fill:#f4d0ff;fill-opacity:0.4;fill-rule:evenodd;opacity:1;stroke:none;" d="M174.299,346.29 C247.917,346.29,307.596,405.969,307.596,479.587 C307.596,553.206,247.917,612.886,174.299,612.886 C100.68,612.886,41,553.206,41,479.587 C41,405.969,100.68,346.29,174.299,346.29 z M174.299,381.994 C228.198,381.994,271.892,425.688,271.892,479.587 C271.892,533.486,228.198,577.18,174.299,577.18 C120.399,577.18,76.7048,533.486,76.7048,479.587 C76.7048,425.688,120.399,381.994,174.299,381.994 z"/>
              <path id="Path_4" style="fill:#b0ff85;fill-opacity:0.4;fill-rule:nonzero;opacity:1;stroke:none;" d="M339.731,333.197 C342.111,342.719,466.041,357.055,501.593,360.571 C609.897,371.282,708.681,340.339,708.681,340.339 C708.681,340.339,849.12,411.749,849.12,411.749 C849.12,411.749,857.451,493.87,857.451,493.87 C857.451,493.87,901.487,502.201,901.487,502.201 C901.487,502.201,928.861,492.68,930.051,476.017 C931.242,459.355,876.495,424.84,871.734,398.656 C866.973,372.473,886.015,164.195,674.166,134.441 C462.318,104.686,440.895,236.795,438.515,246.316 C436.134,255.837,424.232,286.782,424.232,286.782 C424.232,286.782,384.957,296.303,368.294,305.824 C351.632,315.345,337.351,323.677,339.731,333.197 z"/>
            </g>
            <path id="Path_5" style="fill:#b7cdff;fill-opacity:0.478301;fill-rule:nonzero;opacity:1;stroke:none;" d="M213.574,729.522 C227.856,756.896,282.603,774.748,282.603,774.748 C282.603,774.748,268.321,734.283,268.321,734.283 C268.321,734.283,287.364,711.669,275.462,687.866 C263.56,664.062,231.426,665.253,221.904,672.394 C212.384,679.536,199.291,702.148,213.574,729.522 z"/>
            <path id="Path_6" style="fill:#b7cdff;fill-opacity:0.478301;fill-rule:nonzero;opacity:1;stroke:none;" d="M406.38,355.811 C406.38,355.811,388.527,412.938,388.527,412.938 C388.527,412.938,395.669,422.46,395.669,422.46 C395.669,422.46,384.957,547.427,384.957,547.427 C384.957,547.427,377.816,566.47,377.816,566.47 C377.816,566.47,380.197,628.358,380.197,628.358 C380.197,628.358,289.744,678.345,289.744,678.345 C289.744,678.345,333.78,783.08,333.78,783.08 C333.78,783.08,409.95,771.177,409.95,771.177 C409.95,771.177,418.282,786.649,418.282,786.649 C418.282,786.649,443.274,746.184,443.274,746.184 C443.274,746.184,462.318,739.043,462.318,739.043 C462.318,739.043,457.557,729.522,457.557,729.522 C457.557,729.522,471.839,698.578,471.839,698.578 C471.839,698.578,507.543,696.198,507.543,696.198 C507.543,696.198,531.347,717.62,531.347,717.62 C531.347,717.62,519.445,760.466,519.445,760.466 C519.445,760.466,563.482,772.368,563.482,772.368 C563.482,772.368,581.334,748.564,581.334,748.564 C581.334,748.564,578.953,736.663,578.953,736.663 C578.953,736.663,581.334,708.099,581.334,708.099 C581.334,708.099,608.708,697.388,608.708,697.388 C608.708,697.388,646.793,714.05,646.793,714.05 C646.793,714.05,637.271,754.515,637.271,754.515 C637.271,754.515,650.363,767.607,650.363,767.607 C650.363,767.607,661.075,856.869,661.075,856.869 C661.075,856.869,658.694,906.855,658.694,906.855 C658.694,906.855,638.461,942.561,592.045,934.229 C545.629,925.899,537.298,894.954,537.298,894.954 C537.298,894.954,536.108,843.778,536.108,843.778 C536.108,843.778,507.543,844.968,507.543,844.968 C507.543,844.968,508.733,862.82,508.733,862.82 C508.733,862.82,496.832,911.616,496.832,911.616 C496.832,911.616,573.359,1009.55,684.878,1023.49 C818.176,1040.15,896.727,978.266,955.045,981.836 C1013.36,985.407,1089.53,1083,1089.53,1083 C1089.53,1083,1097.86,968.745,1055.02,931.849 C1012.17,894.954,908.628,866.39,891.966,839.017 C875.304,811.643,872.924,792.6,872.924,792.6 C872.924,792.6,979.958,834.435,999.081,791.41 C1027.64,727.141,887.206,664.063,874.114,616.457 C861.021,568.85,849.12,406.988,849.12,406.988 C849.12,406.988,707.491,339.148,707.491,339.148 C707.491,339.148,614.773,365.002,562.291,364.142 C489.691,362.952,406.38,355.811,406.38,355.811 z"/>
          </g>
          <g id="Outlines">
            <path id="Path_7" style="fill:none;opacity:1;stroke:#ffffff;stroke-linecap:butt;stroke-linejoin:miter;stroke-miterlimit:10;stroke-opacity:1;stroke-width:12;" d="M609.897,412.938 C648.021,412.938,678.927,443.844,678.927,481.968 C678.927,520.092,648.021,550.998,609.897,550.998 C571.774,550.998,540.868,520.092,540.868,481.968 C540.868,443.844,571.774,412.938,609.897,412.938 z"/>
            <path id="Path_Copy_1" style="fill:none;opacity:1;stroke:#ffffff;stroke-linecap:butt;stroke-linejoin:miter;stroke-miterlimit:10;stroke-opacity:1;stroke-width:12;" d="M414.709,412.938 C452.833,412.938,483.739,443.844,483.739,481.968 C483.739,520.092,452.833,550.998,414.709,550.998 C376.585,550.998,345.68,520.092,345.68,481.968 C345.68,443.844,376.585,412.938,414.709,412.938 z"/>
            <g id="Group_1">
              <path id="Path_564" style="fill:none;opacity:1;stroke:#ffffff;stroke-linecap:butt;stroke-linejoin:miter;stroke-miterlimit:10;stroke-opacity:1;stroke-width:12;" d="M483.324,474.363 C491.97,468.581,501.834,465.306,512.304,465.306 C522.774,465.306,532.637,468.581,541.283,474.362"/>
            </g>
            <path id="Path_8" style="fill:#ffffff;fill-opacity:1;fill-rule:evenodd;opacity:1;stroke:none;" d="M594.425,459.355 C602.971,459.355,609.897,470.012,609.897,483.158 C609.897,496.304,602.971,506.962,594.425,506.962 C585.881,506.962,578.953,496.304,578.953,483.158 C578.953,470.012,585.881,459.355,594.425,459.355 z"/>
            <path id="Path_Copy_2" style="fill:#ffffff;fill-opacity:1;fill-rule:evenodd;opacity:1;stroke:none;" d="M418.282,459.355 C426.826,459.355,433.754,470.012,433.754,483.158 C433.754,496.304,426.826,506.962,418.282,506.962 C409.736,506.962,402.81,496.304,402.81,483.158 C402.81,470.012,409.736,459.355,418.282,459.355 z"/>
            <path id="Path_9" style="fill:none;opacity:1;stroke:#ffffff;stroke-linecap:round;stroke-linejoin:round;stroke-miterlimit:10;stroke-opacity:1;stroke-width:12;" d="M557.744,574.614 C554.218,577.527,550.294,580.072,546.002,582.166 C531.38,589.298,515.252,589.828,500.996,584.919"/>
            <g id="Group_2">
              <path id="Path_10" style="fill:none;opacity:1;stroke:#ffffff;stroke-linecap:round;stroke-linejoin:round;stroke-miterlimit:10;stroke-opacity:1;stroke-width:12;" d="M600.586,862.93 C633.668,865.647,659.2,883.516,657.613,902.841 C656.026,922.167,627.921,935.63,594.838,932.913 C561.755,930.196,536.223,912.327,537.81,893.002 C539.397,873.676,567.503,860.213,600.586,862.93 z"/>
              <path id="Path_Copy_3" style="fill:none;opacity:1;stroke:#ffffff;stroke-linecap:round;stroke-linejoin:round;stroke-miterlimit:10;stroke-opacity:1;stroke-width:12;" d="M646.929,882.179 C638.344,896.883,618.891,906.229,597.151,904.444 C574.892,902.615,556.901,889.665,551.258,873.208"/>
              <path id="Path_572" style="fill:none;opacity:1;stroke:#ffffff;stroke-linecap:round;stroke-linejoin:round;stroke-miterlimit:10;stroke-opacity:1;stroke-width:12;" d="M661.023,861.323 C662.61,841.997,637.078,824.128,603.995,821.411 C570.913,818.694,542.808,832.159,541.219,851.484 C541.219,851.484,566.707,765.213,566.707,765.213 C567.81,751.785,587.339,742.429,610.326,744.317 C633.314,746.205,651.055,758.622,649.953,772.05 C649.953,772.05,661.023,861.323,661.023,861.323 z"/>
              <path id="Path_570" style="fill:none;opacity:1;stroke:#ffffff;stroke-linecap:round;stroke-linejoin:round;stroke-miterlimit:10;stroke-opacity:1;stroke-width:12;" d="M642.157,745.018 C642.996,734.799,629.496,725.35,612.002,723.914 C594.509,722.477,579.648,729.596,578.809,739.815 C578.809,739.815,581.052,712.496,581.052,712.496 C581.891,702.278,596.752,695.159,614.246,696.595 C631.739,698.032,645.24,707.48,644.4,717.7 C644.4,717.7,642.157,745.018,642.157,745.018 z"/>
              <path id="Path_574" style="fill:none;opacity:1;stroke:#ffffff;stroke-linecap:round;stroke-linejoin:round;stroke-miterlimit:10;stroke-opacity:1;stroke-width:12;" d="M661.023,861.323 C662.61,841.997,637.078,824.128,603.995,821.411 C570.913,818.694,542.808,832.159,541.219,851.484 C541.219,851.484,537.81,893.002,537.81,893.002 C539.397,873.676,567.503,860.213,600.586,862.93 C633.668,865.647,659.2,883.516,657.613,902.841 C657.613,902.841,661.023,861.323,661.023,861.323 z"/>
            </g>
            <g id="Group_3">
              <path id="Path_11" style="fill:none;opacity:1;stroke:#ffffff;stroke-linecap:round;stroke-linejoin:round;stroke-miterlimit:10;stroke-opacity:1;stroke-width:12;" d="M526.112,814.99 C539.445,818.561,548.599,827.634,546.558,835.253 C544.516,842.872,532.052,846.152,518.72,842.58 C505.387,839.007,496.233,829.934,498.274,822.316 C500.316,814.696,512.779,811.417,526.112,814.99 z"/>
              <path id="Path_Copy_4" style="fill:none;opacity:1;stroke:#ffffff;stroke-linecap:round;stroke-linejoin:round;stroke-miterlimit:10;stroke-opacity:1;stroke-width:12;" d="M498.274,822.316 C498.274,822.316,510.708,775.909,512.75,768.29 C514.792,760.671,527.255,757.391,540.589,760.964 C553.922,764.536,563.075,773.609,561.033,781.227 C558.993,788.847,546.855,834.145,546.855,834.145"/>
            </g>
            <g id="Group_Copy">
              <path id="Path_12" style="fill:none;opacity:1;stroke:#ffffff;stroke-linecap:round;stroke-linejoin:round;stroke-miterlimit:10;stroke-opacity:1;stroke-width:12;" d="M452.022,853.187 C483.388,864.049,503.672,887.708,497.327,906.031 C490.981,924.354,460.41,930.403,429.044,919.541 C397.677,908.679,377.393,885.02,383.738,866.696 C390.083,848.374,420.654,842.326,452.022,853.187 z"/>
              <path id="Path_Copy_5" style="fill:none;opacity:1;stroke:#ffffff;stroke-linecap:round;stroke-linejoin:round;stroke-miterlimit:10;stroke-opacity:1;stroke-width:12;" d="M492.118,883.362 C480.146,895.468,458.979,899.679,438.367,892.541 C417.263,885.233,403.06,868.214,401.688,850.871"/>
              <path id="Path_572_1" style="fill:none;opacity:1;stroke:#ffffff;stroke-linecap:round;stroke-linejoin:round;stroke-miterlimit:10;stroke-opacity:1;stroke-width:12;" d="M510.959,866.666 C517.304,848.344,497.02,824.684,465.652,813.823 C434.286,802.96,403.715,809.009,397.369,827.332 C397.369,827.332,443.518,750.114,443.518,750.114 C447.927,737.383,469.17,733.18,490.965,740.727 C504.194,745.309,514.586,753.167,519.726,761.483"/>
              <path id="Path_570_1" style="fill:none;opacity:1;stroke:#ffffff;stroke-linecap:round;stroke-linejoin:round;stroke-miterlimit:10;stroke-opacity:1;stroke-width:12;" d="M521.62,749.324 C524.975,739.635,514.25,727.126,497.664,721.382 C481.077,715.639,464.912,718.836,461.558,728.525 C461.558,728.525,470.527,702.625,470.527,702.625 C473.881,692.936,490.048,689.737,506.633,695.481 C523.219,701.224,533.944,713.734,530.59,723.423 C530.59,723.423,521.62,749.324,521.62,749.324 z"/>
              <path id="Path_574_1" style="fill:none;opacity:1;stroke:#ffffff;stroke-linecap:round;stroke-linejoin:round;stroke-miterlimit:10;stroke-opacity:1;stroke-width:12;" d="M510.959,866.666 C517.304,848.344,497.02,824.684,465.652,813.823 C434.286,802.96,403.715,809.009,397.369,827.332 C397.369,827.332,383.738,866.696,383.738,866.696 C390.083,848.374,420.654,842.326,452.022,853.187 C483.388,864.049,503.672,887.708,497.327,906.031 C497.327,906.031,510.959,866.666,510.959,866.666 z"/>
            </g>
            <path id="Path_13" style="fill:none;opacity:1;stroke:#ffffff;stroke-linecap:round;stroke-linejoin:round;stroke-miterlimit:10;stroke-opacity:1;stroke-width:12;" d="M680.117,477.207 C680.117,477.207,772.756,477.207,789.419,477.207 C806.082,477.207,814.606,496.166,814.606,504.581"/>
            <path id="Path_14" style="fill:none;opacity:1;stroke:#ffffff;stroke-linecap:round;stroke-linejoin:round;stroke-miterlimit:10;stroke-opacity:1;stroke-width:12;" d="M175.488,345.1 C249.107,345.1,308.786,404.779,308.786,478.397 C308.786,552.016,249.107,611.696,175.488,611.696 C101.87,611.696,42.1901,552.016,42.1901,478.397 C42.1901,404.779,101.87,345.1,175.488,345.1 z"/>
            <path id="Path_Copy_6" style="fill:none;opacity:1;stroke:#ffffff;stroke-linecap:round;stroke-linejoin:round;stroke-miterlimit:10;stroke-opacity:1;stroke-width:12;" d="M175.488,379.617 C230.043,379.617,274.269,423.843,274.269,478.397 C274.269,532.953,230.043,577.178,175.488,577.178 C120.934,577.178,76.7081,532.953,76.7081,478.397 C76.7081,423.843,120.934,379.617,175.488,379.617 z"/>
            <path id="Path_Copy_7" style="fill:none;opacity:1;stroke:#ffffff;stroke-linecap:round;stroke-linejoin:round;stroke-miterlimit:10;stroke-opacity:1;stroke-width:12;" d="M108.84,478.397 C108.84,441.588,138.679,411.749,175.488,411.749"/>
            <g id="Group_4">
              <path id="Rectangle" style="fill:none;opacity:1;stroke:#ffffff;stroke-linecap:round;stroke-linejoin:round;stroke-miterlimit:10;stroke-opacity:1;stroke-width:12;" d="M237.197,666.52 C237.197,666.52,230.405,650.522,230.405,650.522 C227.324,643.261,230.712,634.876,237.972,631.795 C237.972,631.795,252.214,625.749,252.214,625.749 C259.475,622.668,267.86,626.055,270.941,633.316 C270.941,633.316,336.291,787.27,336.291,787.27 C339.372,794.531,335.986,802.914,328.725,805.997 C328.725,805.997,314.482,812.043,314.482,812.043 C307.222,815.124,298.838,811.736,295.755,804.476 C295.755,804.476,284.093,777.001,284.093,777.001"/>
              <path id="Path_15" style="fill:none;opacity:1;stroke:#ffffff;stroke-linecap:round;stroke-linejoin:round;stroke-miterlimit:10;stroke-opacity:1;stroke-width:12;" d="M423.042,284.401 C442.085,215.372,488.475,127.299,599.186,127.299 C709.897,127.299,868.759,161.025,868.759,387.926 C868.759,403.096,875.304,411.749,920.53,460.545"/>
              <path id="Path_16" style="fill:none;opacity:1;stroke:#ffffff;stroke-linecap:round;stroke-linejoin:round;stroke-miterlimit:10;stroke-opacity:1;stroke-width:12;" d="M713.441,341.529 C713.441,341.529,738.435,285.592,728.914,227.273 C719.392,168.955,668.216,130.87,668.216,130.87 C668.216,130.87,643.468,40.1806,607.518,74.9324 C571.812,109.447,667.026,130.87,667.026,130.87"/>
              <path id="Path_17" style="fill:none;opacity:1;stroke:#ffffff;stroke-linecap:round;stroke-linejoin:round;stroke-miterlimit:10;stroke-opacity:1;stroke-width:12;" d="M512.304,286.782 C512.304,286.782,518.255,208.23,574.193,168.955 C630.13,129.68,669.406,132.06,669.406,132.06 C669.406,132.06,736.054,53.5095,756.287,101.116 C776.52,148.722,676.546,134.441,676.546,134.441"/>
              <path id="Path_18" style="fill:none;opacity:1;stroke:#ffffff;stroke-linecap:round;stroke-linejoin:round;stroke-miterlimit:10;stroke-opacity:1;stroke-width:12;" d="M234.686,633.19 C234.686,633.19,222.13,603.611,222.13,603.611 M241.85,595.24 C241.85,595.24,254.405,624.82,254.405,624.82"/>
            </g>
            <path id="Path_19" style="fill:none;opacity:1;stroke:#ffffff;stroke-linecap:round;stroke-linejoin:round;stroke-miterlimit:10;stroke-opacity:1;stroke-width:12;" d="M407.57,352.24 C400.67,371.56,394.659,391.413,389.881,416.54 M378.497,541.462 C378.048,557.796,377.816,575.578,377.816,595.034 C377.816,660.286,393.096,728.294,420.247,790.401 M495.629,911.629 C553.559,978.851,629.078,1023.49,713.496,1023.49 C881.313,1023.49,852.282,984.217,963.375,984.217 C1027.74,984.217,1090.72,1083,1090.72,1083 C1090.72,1083,1110.96,960.413,1026.45,906.856 C941.953,853.299,889.586,865.201,869.353,792.6"/>
            <path id="Path_20" style="fill:none;opacity:1;stroke:#ffffff;stroke-linecap:round;stroke-linejoin:round;stroke-miterlimit:10;stroke-opacity:1;stroke-width:12;" d="M402.809,412.938 C402.809,412.938,389.717,443.883,386.147,480.778 C382.707,516.336,386.147,545.047,386.147,545.047"/>
            <path id="Path_21" style="fill:none;opacity:1;stroke:#ffffff;stroke-linecap:round;stroke-linejoin:round;stroke-miterlimit:10;stroke-opacity:1;stroke-width:12;" d="M846.74,408.178 C856.262,451.024,859.831,480.778,862.212,570.04 C864.592,659.303,1003.84,727.078,1003.84,771.177 C1003.84,805.774,976.468,810.453,950.284,810.453 C914.5,810.453,813.416,772.368,787.232,734.283"/>
            <path id="Path_22" style="fill:none;opacity:1;stroke:#ffffff;stroke-linecap:round;stroke-linejoin:round;stroke-miterlimit:10;stroke-opacity:1;stroke-width:12;" d="M878.874,565.279 C825.317,583.132,715.822,654.542,650.363,772.368"/>
            <path id="Path_23" style="fill:none;opacity:1;stroke:#ffffff;stroke-linecap:round;stroke-linejoin:round;stroke-miterlimit:10;stroke-opacity:1;stroke-width:12;" d="M376.626,625.977"/>
            <path id="Path_577" style="fill:none;opacity:1;stroke:#ffffff;stroke-linecap:round;stroke-linejoin:round;stroke-miterlimit:10;stroke-opacity:1;stroke-width:12;" d="M411.14,768.797 C411.14,768.797,402.809,777.128,361.153,779.509 C353.49,779.947,344.8,780.063,333.78,779.509 M283.793,775.938 C247.493,767.219,212.384,745.871,212.384,711.669 C212.384,702.312,206.433,667.633,238.566,668.823 C270.701,670.014,275.462,684.295,277.843,698.578 C280.222,712.86,277.843,725.951,267.131,734.283 C281.397,772.436,267.131,734.283,267.131,734.283 C267.131,734.283,283.793,775.938,283.793,775.938 z"/>
            <path id="Path_24" style="fill:none;opacity:1;stroke:#ffffff;stroke-linecap:round;stroke-linejoin:round;stroke-miterlimit:10;stroke-opacity:1;stroke-width:12;" d="M376.626,627.168 C359.111,649.607,322.973,664.47,289.043,676.19"/>
            <path id="Path_25" style="fill:none;opacity:1;stroke:#ffffff;stroke-linecap:round;stroke-linejoin:round;stroke-miterlimit:10;stroke-opacity:1;stroke-width:12;" d="M861.022,492.68 C896.727,508.152,929.47,503.445,929.47,474.34 C929.47,456.884,831.433,388.736,711.829,341.409 C630.622,309.276,539.474,284.401,462.318,284.401 C400.326,284.401,338.541,312.965,338.541,330.817 C338.541,348.67,489.059,362.952,563.482,362.952 C637.903,362.952,705.111,343.909,705.111,343.909"/>
          </g>
        </g>
      </g>
      <g id="am7">
        <path style="fill:none;opacity:1;stroke:#000000;stroke-linecap:round;stroke-linejoin:round;stroke-miterlimit:10;stroke-opacity:1;stroke-width:1;" d="M512,0 C794.77,0,1024,229.23,1024,512 C1024,794.77,794.77,1024,512,1024 C229.23,1024,0,794.77,0,512 C0,229.23,229.23,0,512,0 z"/>
      </g>
      <clipPath id="am8">
        <path id="am9" d="M512,0 C794.77,0,1024,229.23,1024,512 C1024,794.77,794.77,1024,512,1024 C229.23,1024,0,794.77,0,512 C0,229.23,229.23,0,512,0 z"/>
        <path d="M512,0 C794.77,0,1024,229.23,1024,512 C1024,794.77,794.77,1024,512,1024 C229.23,1024,0,794.77,0,512 C0,229.23,229.23,0,512,0 z"/>
      </clipPath>
      <g id="am10" style="clip-path:url(#am8);"/>
    </g>
  </g>
</svg>
