<?xml version="1.0" encoding="utf-8"?>
<svg x="0pt" y="0pt" width="1024pt" height="1024pt" viewBox="0 0 1024 1024" xmlns="http://www.w3.org/2000/svg" xmlns:xlink="http://www.w3.org/1999/xlink">
  <!--Generated by AMDN-->
  <g id="Layer_1">
    <g id="Layer_1-1">
      <radialGradient cx="512" cy="512" r="516" fx="512" fy="512" gradientUnits="userSpaceOnUse" gradientTransform="matrix(-4.37114e-08,1,-1,-4.37114e-08,1024,2.23802e-05)" id="am2">
        <stop style="stop-color:#3da8f4;stop-opacity:1;"/>
        <stop offset="1" style="stop-color:#382f93;stop-opacity:1;"/>
      </radialGradient>
      <g id="Path">
        <path style="fill:url(#am2);fill-opacity:1;fill-rule:evenodd;opacity:1;stroke:none;" d="M-4,-4 C-4,-4,1028,-4,1028,-4 C1028,-4,1028,1028,1028,1028 C1028,1028,-4,1028,-4,1028 C-4,1028,-4,-4,-4,-4 z"/>
      </g>
      <g id="Halitja">
        <g id="Fills">
          <path id="Fills_1" style="fill:#bcffaa;fill-opacity:0.2;fill-rule:evenodd;opacity:1;stroke:none;" d="M552.544,379.549 C585.574,379.549,612.349,406.325,612.349,439.354 C612.349,472.383,585.574,499.159,552.544,499.159 C519.515,499.159,492.74,472.383,492.74,439.354 C492.74,406.325,519.515,379.549,552.544,379.549 z"/>
          <path id="Path_1" style="fill:#f4cfff;fill-opacity:0.4;fill-rule:nonzero;opacity:1;stroke:none;" d="M205.463,551.488 C205.463,551.488,216.143,577.119,216.143,577.119 C216.143,577.119,210.803,584.594,210.803,584.594 C210.803,584.594,219.841,606.193,219.841,606.193 C219.841,606.193,249.015,612.161,253.521,628.38 C258.86,647.603,242.172,659.561,244.797,665.833 C252.05,683.169,273.811,735.174,273.811,735.174 C273.811,735.174,307.986,723.427,307.986,723.427 C307.986,723.427,244.977,568.575,244.977,568.575 C244.977,568.575,232.162,568.575,232.162,568.575 C232.162,568.575,221.482,541.877,221.482,541.877 C221.482,541.877,205.463,551.488,205.463,551.488 z"/>
          <path id="Path_2" style="fill:#f4cfff;fill-opacity:0.4;fill-rule:nonzero;opacity:1;stroke:none;" d="M389.149,834.493 C422.255,840.9,447.886,835.561,448.954,822.745 C450.022,809.93,467.109,777.892,467.109,777.892 C467.109,777.892,462.837,760.805,462.837,760.805 C462.837,760.805,489.536,762.941,489.536,762.941 C489.536,762.941,488.468,813.134,488.468,813.134 C488.468,813.134,505.555,849.444,540.797,845.172 C576.039,840.9,593.126,829.153,594.194,818.474 C595.262,807.794,596.33,766.144,596.33,766.144 C596.33,766.144,585.651,687.117,585.651,687.117 C585.651,687.117,577.107,682.845,577.107,682.845 C577.107,682.845,582.447,644.399,582.447,644.399 C582.447,644.399,571.767,629.448,554.68,630.516 C537.593,631.584,524.778,644.399,524.778,644.399 C524.778,644.399,525.846,679.641,525.846,679.641 C525.846,679.641,510.895,689.253,510.895,689.253 C510.895,689.253,509.827,702.068,509.827,702.068 C509.827,702.068,500.215,691.388,487.4,689.253 C474.585,687.117,467.109,690.321,467.109,690.321 C467.109,690.321,482.06,651.875,482.06,651.875 C482.06,651.875,474.585,634.788,461.769,631.584 C448.954,628.38,426.527,634.788,426.527,634.788 C426.527,634.788,417.984,659.35,417.984,659.35 C417.984,659.35,422.255,668.962,422.255,668.962 C422.255,668.962,405.168,674.301,405.168,674.301 C405.168,674.301,365.654,740.514,365.654,740.514 C365.654,740.514,346.431,787.503,346.431,787.503 C346.431,787.503,356.043,828.085,389.149,834.493 z"/>
          <path id="Path_3" style="fill:#bcffaa;fill-opacity:0.2;fill-rule:nonzero;opacity:1;stroke:none;" d="M366.722,772.552 C366.722,772.552,370.994,799.251,395.557,806.726 C420.12,814.202,446.818,799.251,446.818,799.251 C446.818,799.251,438.275,782.164,414.78,775.756 C391.285,769.348,366.722,772.552,366.722,772.552 z"/>
          <path id="Path_Copy" style="fill:#bcffaa;fill-opacity:0.2;fill-rule:nonzero;opacity:1;stroke:none;" d="M501.735,791.4 C501.735,791.4,511.3,816.69,536.865,819.061 C562.431,821.433,585.568,801.407,585.568,801.407 C585.568,801.407,573.756,786.393,549.451,784.852 C525.147,783.312,501.735,791.4,501.735,791.4 z"/>
          <path id="Fills_Copy" style="fill:#bcffaa;fill-opacity:0.2;fill-rule:evenodd;opacity:1;stroke:none;" d="M377.402,380.617 C410.431,380.617,437.207,407.393,437.207,440.422 C437.207,473.451,410.431,500.227,377.402,500.227 C344.373,500.227,317.597,473.451,317.597,440.422 C317.597,407.393,344.373,380.617,377.402,380.617 z"/>
          <g id="Group">
            <path id="Path_579" style="fill:#bcffaa;fill-opacity:0.2;fill-rule:evenodd;opacity:1;stroke:none;" d="M160.61,349.647 C208.974,349.647,248.181,388.854,248.181,437.218 C248.181,485.583,208.974,524.789,160.61,524.789 C112.245,524.789,73.0382,485.583,73.0382,437.218 C73.0382,388.854,112.245,349.647,160.61,349.647 z"/>
            <path id="Path_578" style="fill:#f4cfff;fill-opacity:0.4;fill-rule:evenodd;opacity:1;stroke:none;" d="M160.61,317.609 C226.668,317.609,280.219,371.16,280.219,437.218 C280.219,503.277,226.668,556.828,160.61,556.828 C94.551,556.828,41,503.277,41,437.218 C41,371.16,94.551,317.609,160.61,317.609 z M160.61,349.647 C208.974,349.647,248.181,388.854,248.181,437.218 C248.181,485.582,208.974,524.789,160.61,524.789 C112.245,524.789,73.0382,485.582,73.0382,437.218 C73.0382,388.854,112.245,349.647,160.61,349.647 z"/>
            <path id="Path_4" style="fill:#afff85;fill-opacity:0.4;fill-rule:nonzero;opacity:1;stroke:none;" d="M309.054,305.861 C311.189,314.405,422.393,327.269,454.294,330.424 C551.476,340.035,640.116,312.269,640.116,312.269 C640.116,312.269,766.133,376.346,766.133,376.346 C766.133,376.346,773.608,450.034,773.608,450.034 C773.608,450.034,813.122,457.509,813.122,457.509 C813.122,457.509,837.685,448.966,838.753,434.014 C839.821,419.063,790.696,388.093,786.424,364.598 C782.152,341.103,799.239,154.214,609.145,127.515 C419.052,100.816,399.829,219.358,397.693,227.902 C395.557,236.445,384.877,264.212,384.877,264.212 C384.877,264.212,349.635,272.755,334.684,281.299 C319.733,289.842,306.918,297.318,309.054,305.861 z"/>
          </g>
          <path id="Path_5" style="fill:#b6cdff;fill-opacity:0.478301;fill-rule:nonzero;opacity:1;stroke:none;" d="M195.852,661.486 C208.667,686.049,257.792,702.068,257.792,702.068 C257.792,702.068,244.977,665.758,244.977,665.758 C244.977,665.758,262.064,645.467,251.385,624.108 C240.705,602.749,211.871,603.817,203.327,610.225 C194.784,616.633,183.036,636.923,195.852,661.486 z"/>
          <path id="Path_6" style="fill:#b6cdff;fill-opacity:0.478301;fill-rule:nonzero;opacity:1;stroke:none;" d="M368.858,326.152 C368.858,326.152,352.839,377.413,352.839,377.413 C352.839,377.413,359.247,385.957,359.247,385.957 C359.247,385.957,349.635,498.091,349.635,498.091 C349.635,498.091,343.228,515.178,343.228,515.178 C343.228,515.178,345.364,570.711,345.364,570.711 C345.364,570.711,264.2,615.565,264.2,615.565 C264.2,615.565,303.714,709.544,303.714,709.544 C303.714,709.544,372.062,698.864,372.062,698.864 C372.062,698.864,379.538,712.747,379.538,712.747 C379.538,712.747,401.964,676.437,401.964,676.437 C401.964,676.437,419.052,670.03,419.052,670.03 C419.052,670.03,414.78,661.486,414.78,661.486 C414.78,661.486,427.595,633.72,427.595,633.72 C427.595,633.72,459.633,631.584,459.633,631.584 C459.633,631.584,480.992,650.807,480.992,650.807 C480.992,650.807,470.313,689.253,470.313,689.253 C470.313,689.253,509.827,699.932,509.827,699.932 C509.827,699.932,525.846,678.573,525.846,678.573 C525.846,678.573,523.71,667.894,523.71,667.894 C523.71,667.894,525.846,642.263,525.846,642.263 C525.846,642.263,550.409,632.652,550.409,632.652 C550.409,632.652,584.583,647.603,584.583,647.603 C584.583,647.603,576.039,683.913,576.039,683.913 C576.039,683.913,587.786,695.66,587.786,695.66 C587.786,695.66,597.398,775.756,597.398,775.756 C597.398,775.756,595.262,820.609,595.262,820.609 C595.262,820.609,577.107,852.648,535.457,845.172 C493.808,837.697,486.332,809.93,486.332,809.93 C486.332,809.93,485.264,764.009,485.264,764.009 C485.264,764.009,459.633,765.077,459.633,765.077 C459.633,765.077,460.701,781.096,460.701,781.096 C460.701,781.096,450.022,824.881,450.022,824.881 C450.022,824.881,518.69,912.76,618.757,925.268 C738.366,940.219,808.851,884.686,861.18,887.89 C913.509,891.094,981.857,978.665,981.857,978.665 C981.857,978.665,989.333,876.143,950.887,843.036 C912.441,809.93,819.53,784.299,804.579,759.737 C789.628,735.174,787.492,718.087,787.492,718.087 C787.492,718.087,883.535,755.626,900.694,717.019 C926.324,659.35,800.307,602.749,788.56,560.032 C776.812,517.314,766.133,372.074,766.133,372.074 C766.133,372.074,639.048,311.201,639.048,311.201 C639.048,311.201,555.851,334.4,508.759,333.628 C443.614,332.56,368.858,326.152,368.858,326.152 z"/>
        </g>
        <g id="Outlines">
          <path id="Path_7" style="fill:none;opacity:1;stroke:#ffffff;stroke-linecap:butt;stroke-linejoin:miter;stroke-miterlimit:10;stroke-opacity:1;stroke-width:12;" d="M551.476,377.413 C585.685,377.413,613.417,405.145,613.417,439.354 C613.417,473.563,585.685,501.295,551.476,501.295 C517.268,501.295,489.536,473.563,489.536,439.354 C489.536,405.145,517.268,377.413,551.476,377.413 z"/>
          <path id="Path_Copy_1" style="fill:none;opacity:1;stroke:#ffffff;stroke-linecap:butt;stroke-linejoin:miter;stroke-miterlimit:10;stroke-opacity:1;stroke-width:12;" d="M376.332,377.413 C410.541,377.413,438.273,405.145,438.273,439.354 C438.273,473.563,410.541,501.295,376.332,501.295 C342.123,501.295,314.392,473.563,314.392,439.354 C314.392,405.145,342.123,377.413,376.332,377.413 z"/>
          <g id="Group_1">
            <path id="Path_564" style="fill:none;opacity:1;stroke:#ffffff;stroke-linecap:butt;stroke-linejoin:miter;stroke-miterlimit:10;stroke-opacity:1;stroke-width:12;" d="M437.901,432.53 C445.659,427.342,454.51,424.403,463.905,424.403 C473.3,424.403,482.15,427.342,489.908,432.529"/>
          </g>
          <path id="Path_8" style="fill:#ffffff;fill-opacity:1;fill-rule:evenodd;opacity:1;stroke:none;" d="M537.593,419.063 C545.261,419.063,551.476,428.626,551.476,440.422 C551.476,452.218,545.261,461.781,537.593,461.781 C529.926,461.781,523.71,452.218,523.71,440.422 C523.71,428.626,529.926,419.063,537.593,419.063 z"/>
          <path id="Path_Copy_2" style="fill:#ffffff;fill-opacity:1;fill-rule:evenodd;opacity:1;stroke:none;" d="M379.538,419.063 C387.205,419.063,393.421,428.626,393.421,440.422 C393.421,452.218,387.205,461.781,379.538,461.781 C371.87,461.781,365.655,452.218,365.655,440.422 C365.655,428.626,371.87,419.063,379.538,419.063 z"/>
          <path id="Path_9" style="fill:none;opacity:1;stroke:#ffffff;stroke-linecap:round;stroke-linejoin:round;stroke-miterlimit:10;stroke-opacity:1;stroke-width:12;" d="M504.679,522.486 C501.515,525.1,497.994,527.384,494.142,529.263 C481.022,535.662,466.55,536.138,453.758,531.733"/>
          <g id="Group_2">
            <path id="Path_10" style="fill:none;opacity:1;stroke:#ffffff;stroke-linecap:round;stroke-linejoin:round;stroke-miterlimit:10;stroke-opacity:1;stroke-width:12;" d="M543.121,781.194 C572.806,783.632,595.716,799.666,594.292,817.007 C592.868,834.348,567.649,846.429,537.963,843.991 C508.278,841.553,485.368,825.519,486.792,808.178 C488.216,790.837,513.435,778.756,543.121,781.194 z"/>
            <path id="Path_Copy_3" style="fill:none;opacity:1;stroke:#ffffff;stroke-linecap:round;stroke-linejoin:round;stroke-miterlimit:10;stroke-opacity:1;stroke-width:12;" d="M584.705,798.467 C577.002,811.661,559.546,820.047,540.039,818.445 C520.066,816.804,503.922,805.184,498.859,790.417"/>
            <path id="Path_572" style="fill:none;opacity:1;stroke:#ffffff;stroke-linecap:round;stroke-linejoin:round;stroke-miterlimit:10;stroke-opacity:1;stroke-width:12;" d="M597.352,779.752 C598.776,762.411,575.866,746.377,546.18,743.939 C516.495,741.501,491.276,753.583,489.851,770.924 C489.851,770.924,512.721,693.512,512.721,693.512 C513.711,681.463,531.234,673.068,551.861,674.762 C572.488,676.456,588.407,687.598,587.418,699.647 C587.418,699.647,597.352,779.752,597.352,779.752 z"/>
            <path id="Path_570" style="fill:none;opacity:1;stroke:#ffffff;stroke-linecap:round;stroke-linejoin:round;stroke-miterlimit:10;stroke-opacity:1;stroke-width:12;" d="M580.423,675.391 C581.176,666.221,569.062,657.743,553.365,656.454 C537.668,655.165,524.333,661.553,523.58,670.722 C523.58,670.722,525.593,646.209,525.593,646.209 C526.346,637.04,539.681,630.652,555.378,631.941 C571.075,633.23,583.189,641.708,582.436,650.878 C582.436,650.878,580.423,675.391,580.423,675.391 z"/>
            <path id="Path_574" style="fill:none;opacity:1;stroke:#ffffff;stroke-linecap:round;stroke-linejoin:round;stroke-miterlimit:10;stroke-opacity:1;stroke-width:12;" d="M597.352,779.752 C598.776,762.411,575.866,746.377,546.18,743.939 C516.495,741.501,491.276,753.583,489.851,770.924 C489.851,770.924,486.792,808.178,486.792,808.178 C488.216,790.837,513.435,778.756,543.121,781.194 C572.806,783.632,595.716,799.666,594.292,817.007 C594.292,817.007,597.352,779.752,597.352,779.752 z"/>
          </g>
          <g id="Group_3">
            <path id="Path_11" style="fill:none;opacity:1;stroke:#ffffff;stroke-linecap:round;stroke-linejoin:round;stroke-miterlimit:10;stroke-opacity:1;stroke-width:12;" d="M476.295,738.177 C488.259,741.382,496.473,749.523,494.641,756.36 C492.809,763.196,481.625,766.139,469.662,762.934 C457.698,759.728,449.484,751.587,451.316,744.751 C453.148,737.914,464.331,734.971,476.295,738.177 z"/>
            <path id="Path_Copy_4" style="fill:none;opacity:1;stroke:#ffffff;stroke-linecap:round;stroke-linejoin:round;stroke-miterlimit:10;stroke-opacity:1;stroke-width:12;" d="M451.316,744.751 C451.316,744.751,462.473,703.11,464.305,696.273 C466.137,689.437,477.321,686.493,489.285,689.699 C501.249,692.905,509.462,701.046,507.63,707.882 C505.799,714.719,494.908,755.365,494.908,755.365"/>
          </g>
          <g id="Group_Copy">
            <path id="Path_12" style="fill:none;opacity:1;stroke:#ffffff;stroke-linecap:round;stroke-linejoin:round;stroke-miterlimit:10;stroke-opacity:1;stroke-width:12;" d="M409.813,772.452 C437.958,782.198,456.159,803.428,450.466,819.869 C444.772,836.311,417.34,841.738,389.195,831.992 C361.049,822.245,342.848,801.016,348.542,784.574 C354.235,768.133,381.667,762.706,409.813,772.452 z"/>
            <path id="Path_Copy_5" style="fill:none;opacity:1;stroke:#ffffff;stroke-linecap:round;stroke-linejoin:round;stroke-miterlimit:10;stroke-opacity:1;stroke-width:12;" d="M445.792,799.528 C435.049,810.391,416.056,814.17,397.561,807.765 C378.624,801.207,365.879,785.936,364.648,770.374"/>
            <path id="Path_572_1" style="fill:none;opacity:1;stroke:#ffffff;stroke-linecap:round;stroke-linejoin:round;stroke-miterlimit:10;stroke-opacity:1;stroke-width:12;" d="M462.698,784.547 C468.391,768.106,450.19,746.876,422.044,737.13 C393.899,727.383,366.467,732.811,360.773,749.252 C360.773,749.252,402.183,679.964,402.183,679.964 C406.139,668.54,425.2,664.769,444.757,671.541 C456.628,675.652,465.953,682.703,470.565,690.165"/>
            <path id="Path_570_1" style="fill:none;opacity:1;stroke:#ffffff;stroke-linecap:round;stroke-linejoin:round;stroke-miterlimit:10;stroke-opacity:1;stroke-width:12;" d="M472.264,679.255 C475.275,670.561,465.651,659.336,450.768,654.182 C435.885,649.029,421.38,651.898,418.37,660.592 C418.37,660.592,426.418,637.351,426.418,637.351 C429.428,628.657,443.934,625.787,458.816,630.941 C473.699,636.094,483.323,647.32,480.313,656.014 C480.313,656.014,472.264,679.255,472.264,679.255 z"/>
            <path id="Path_574_1" style="fill:none;opacity:1;stroke:#ffffff;stroke-linecap:round;stroke-linejoin:round;stroke-miterlimit:10;stroke-opacity:1;stroke-width:12;" d="M462.698,784.547 C468.391,768.106,450.19,746.876,422.044,737.13 C393.899,727.383,366.467,732.811,360.773,749.252 C360.773,749.252,348.542,784.574,348.542,784.574 C354.235,768.133,381.667,762.706,409.813,772.452 C437.958,782.198,456.159,803.428,450.466,819.869 C450.466,819.869,462.698,784.547,462.698,784.547 z"/>
          </g>
          <path id="Path_13" style="fill:none;opacity:1;stroke:#ffffff;stroke-linecap:round;stroke-linejoin:round;stroke-miterlimit:10;stroke-opacity:1;stroke-width:12;" d="M614.485,435.082 C614.485,435.082,697.611,435.082,712.562,435.082 C727.514,435.082,735.163,452.094,735.163,459.645"/>
          <path id="Path_14" style="fill:none;opacity:1;stroke:#ffffff;stroke-linecap:round;stroke-linejoin:round;stroke-miterlimit:10;stroke-opacity:1;stroke-width:12;" d="M161.677,316.541 C227.736,316.541,281.287,370.092,281.287,436.15 C281.287,502.209,227.736,555.76,161.677,555.76 C95.6189,555.76,42.0679,502.209,42.0679,436.15 C42.0679,370.092,95.6189,316.541,161.677,316.541 z"/>
          <path id="Path_Copy_6" style="fill:none;opacity:1;stroke:#ffffff;stroke-linecap:round;stroke-linejoin:round;stroke-miterlimit:10;stroke-opacity:1;stroke-width:12;" d="M161.677,347.514 C210.63,347.514,250.314,387.198,250.314,436.15 C250.314,485.103,210.63,524.787,161.677,524.787 C112.725,524.787,73.0412,485.103,73.0412,436.15 C73.0412,387.198,112.725,347.514,161.677,347.514 z"/>
          <path id="Path_Copy_7" style="fill:none;opacity:1;stroke:#ffffff;stroke-linecap:round;stroke-linejoin:round;stroke-miterlimit:10;stroke-opacity:1;stroke-width:12;" d="M101.873,436.15 C101.873,403.121,128.648,376.346,161.677,376.346"/>
          <g id="Group_4">
            <path id="Rectangle" style="fill:none;opacity:1;stroke:#ffffff;stroke-linecap:round;stroke-linejoin:round;stroke-miterlimit:10;stroke-opacity:1;stroke-width:12;" d="M217.049,604.954 C217.049,604.954,210.955,590.599,210.955,590.599 C208.19,584.084,211.23,576.56,217.745,573.795 C217.745,573.795,230.524,568.37,230.524,568.37 C237.039,565.605,244.563,568.645,247.328,575.16 C247.328,575.16,305.967,713.304,305.967,713.304 C308.732,719.819,305.693,727.342,299.178,730.108 C299.178,730.108,286.398,735.533,286.398,735.533 C279.883,738.298,272.36,735.258,269.594,728.743 C269.594,728.743,259.129,704.09,259.129,704.09"/>
            <path id="Path_15" style="fill:none;opacity:1;stroke:#ffffff;stroke-linecap:round;stroke-linejoin:round;stroke-miterlimit:10;stroke-opacity:1;stroke-width:12;" d="M383.809,262.076 C400.897,200.135,442.523,121.107,541.865,121.107 C641.207,121.107,783.755,151.369,783.755,354.969 C783.755,368.582,789.628,376.346,830.209,420.131"/>
            <path id="Path_16" style="fill:none;opacity:1;stroke:#ffffff;stroke-linecap:round;stroke-linejoin:round;stroke-miterlimit:10;stroke-opacity:1;stroke-width:12;" d="M644.387,313.337 C644.387,313.337,666.814,263.144,658.271,210.814 C649.727,158.485,603.806,124.311,603.806,124.311 C603.806,124.311,581.599,42.9347,549.341,74.1178 C517.302,105.088,602.738,124.311,602.738,124.311"/>
            <path id="Path_17" style="fill:none;opacity:1;stroke:#ffffff;stroke-linecap:round;stroke-linejoin:round;stroke-miterlimit:10;stroke-opacity:1;stroke-width:12;" d="M463.905,264.212 C463.905,264.212,469.245,193.727,519.438,158.485 C569.631,123.243,604.874,125.379,604.874,125.379 C604.874,125.379,664.678,54.8949,682.833,97.6126 C700.988,140.33,611.281,127.515,611.281,127.515"/>
            <path id="Path_18" style="fill:none;opacity:1;stroke:#ffffff;stroke-linecap:round;stroke-linejoin:round;stroke-miterlimit:10;stroke-opacity:1;stroke-width:12;" d="M214.796,575.047 C214.796,575.047,203.529,548.505,203.529,548.505 M221.224,540.994 C221.224,540.994,232.49,567.536,232.49,567.536"/>
          </g>
          <path id="Path_19" style="fill:none;opacity:1;stroke:#ffffff;stroke-linecap:round;stroke-linejoin:round;stroke-miterlimit:10;stroke-opacity:1;stroke-width:12;" d="M369.926,322.948 C363.735,340.284,358.341,358.098,354.054,380.645 M343.839,492.739 C343.436,507.395,343.228,523.351,343.228,540.809 C343.228,599.36,356.939,660.384,381.301,716.114 M448.942,824.892 C500.923,885.211,568.687,925.268,644.436,925.268 C795.02,925.268,768.97,890.026,868.655,890.026 C926.413,890.026,982.925,978.665,982.925,978.665 C982.925,978.665,1001.08,868.667,925.256,820.61 C849.432,772.552,802.443,783.232,784.288,718.087"/>
          <path id="Path_20" style="fill:none;opacity:1;stroke:#ffffff;stroke-linecap:round;stroke-linejoin:round;stroke-miterlimit:10;stroke-opacity:1;stroke-width:12;" d="M365.654,377.413 C365.654,377.413,353.907,405.18,350.703,438.286 C347.616,470.193,350.703,495.955,350.703,495.955"/>
          <path id="Path_21" style="fill:none;opacity:1;stroke:#ffffff;stroke-linecap:round;stroke-linejoin:round;stroke-miterlimit:10;stroke-opacity:1;stroke-width:12;" d="M763.997,373.142 C772.541,411.588,775.744,438.286,777.88,518.382 C780.016,598.478,904.965,659.293,904.965,698.864 C904.965,729.908,880.403,734.106,856.908,734.106 C824.799,734.106,734.095,699.932,710.6,665.758"/>
          <path id="Path_22" style="fill:none;opacity:1;stroke:#ffffff;stroke-linecap:round;stroke-linejoin:round;stroke-miterlimit:10;stroke-opacity:1;stroke-width:12;" d="M792.831,514.11 C744.774,530.129,646.523,594.206,587.786,699.932"/>
          <path id="Path_23" style="fill:none;opacity:1;stroke:#ffffff;stroke-linecap:round;stroke-linejoin:round;stroke-miterlimit:10;stroke-opacity:1;stroke-width:12;" d="M342.16,568.575"/>
          <path id="Path_577" style="fill:none;opacity:1;stroke:#ffffff;stroke-linecap:round;stroke-linejoin:round;stroke-miterlimit:10;stroke-opacity:1;stroke-width:12;" d="M373.13,696.728 C373.13,696.728,365.654,704.204,328.276,706.34 C321.4,706.733,313.602,706.837,303.714,706.34 M258.86,703.136 C226.288,695.312,194.784,676.156,194.784,645.467 C194.784,637.071,189.444,605.953,218.278,607.021 C247.113,608.089,251.385,620.904,253.521,633.72 C255.656,646.535,253.521,658.282,243.909,665.758 C256.71,699.993,243.909,665.758,243.909,665.758 C243.909,665.758,258.86,703.136,258.86,703.136 z"/>
          <path id="Path_24" style="fill:none;opacity:1;stroke:#ffffff;stroke-linecap:round;stroke-linejoin:round;stroke-miterlimit:10;stroke-opacity:1;stroke-width:12;" d="M342.16,569.643 C326.444,589.778,294.017,603.115,263.571,613.631"/>
          <path id="Path_25" style="fill:none;opacity:1;stroke:#ffffff;stroke-linecap:round;stroke-linejoin:round;stroke-miterlimit:10;stroke-opacity:1;stroke-width:12;" d="M776.812,448.966 C808.851,462.849,838.231,458.626,838.231,432.509 C838.231,416.846,750.262,355.696,642.94,313.229 C570.073,284.396,488.285,262.076,419.052,262.076 C363.426,262.076,307.986,287.706,307.986,303.725 C307.986,319.745,443.047,332.56,509.827,332.56 C576.606,332.56,636.912,315.473,636.912,315.473"/>
        </g>
      </g>
    </g>
  </g>
</svg>
